# xmcd
#
# Track frame offsets:
# 150
# 12459
# 24346
# 36651
# 46709
# 60002
# 69678
# 80637
# 99252
# 114386
# 127667
# 145702
# 159546
# 171715
# 184950
# 198685
# 214755
# 226884
# 243415
# 257422
# 270195
# 284038
# 295504
# 310798
# 329604
# 344145
#
# Disc length: 4773 seconds
#
#
# Revision: 0
# Processed by: cddbd v1.5.1PL0 Copyright (c) Steve Scherf et al.
# Submitted via: FreeRIP 2.92 
#
DISCID=7c12a31a
DTITLE=Various Artist - 30 let ceské country
DYEAR=2001
DGENRE=Country
TTITLE0=To vsechno odnes cas (Waldemar Matuska)
TTITLE1=Sve banjo odhazuji v dal (Jiri Grossmann)
TTITLE2=Oh,Ruby ,nechtej mi lasku brat (Pavel Bobek)
TTITLE3=Ta zem je tva zem (Rangers)
TTITLE4=T jako Texas (Greenhorns)
TTITLE5=Aljaska (Mustangove)
TTITLE6=Blues Folsomske veznice (Michal Tucny)
TTITLE7=Oranzovy Expres (Mirek Hoffmann)
TTITLE8=El Paso (Michal Tucny a Tomas Linka)
TTITLE9=Ja tu zemi znam (Ladislav Vodicka)
TTITLE10=Dlouhy cerny zavoj (Vrata Vyskocil&Taxmeni)
TTITLE11=Nakladak (Petra Cernocka)
TTITLE12=Ved me dal cesto ma (Pavel Bobek)
TTITLE13=Sundej s hodin zavazi (Michal Tucny&Fesaci)
TTITLE14=Jdem tim zdejsim svetem (Karel Zich)
TTITLE15=Cadillac (Honza Vycital)
TTITLE16=V zadech tahnu stin (Karel Zich)
TTITLE17=Hrac (Petr Spaleny)
TTITLE18=Posledni kovboj (Michal Tucny)
TTITLE19=Pivni dzip (Honza Vycital)
TTITLE20=Na ceste (Wabi Danek)
TTITLE21=Slecna sen (Nada Urbankova,Karel Cernoch)
TTITLE22=Chtel bych byt medvidkem (Michal Tucny,Zdenek Rytir)
TTITLE23=Vsichni jsou uz v Mexiku (Michal Tucny)
TTITLE24=Usta do podkovy (Vit Tucny)
TTITLE25=Maly dum nad skalou (Vera Martinova)
EXTD=
EXTT0=
EXTT1=
EXTT2=
EXTT3=
EXTT4=
EXTT5=
EXTT6=
EXTT7=
EXTT8=
EXTT9=
EXTT10=
EXTT11=
EXTT12=
EXTT13=
EXTT14=
EXTT15=
EXTT16=
EXTT17=
EXTT18=
EXTT19=
EXTT20=
EXTT21=
EXTT22=
EXTT23=
EXTT24=
EXTT25=
PLAYORDER=
